<svg xmlns="http://www.w3.org/2000/svg" width="1200" height="630" viewBox="0 0 1200 630">
<defs>
<radialGradient id="bg" cx="50%" cy="46%" r="75%"><stop offset="0%" stop-color="#0e1a12"/><stop offset="55%" stop-color="#0a120c"/><stop offset="100%" stop-color="#060a07"/></radialGradient>
<linearGradient id="snake" x1="0" y1="0" x2="1" y2="1"><stop offset="0" stop-color="#4ade80"/><stop offset=".55" stop-color="#22c55e"/><stop offset="1" stop-color="#a3e635"/></linearGradient>
<filter id="glow" x="-60%" y="-60%" width="220%" height="220%"><feGaussianBlur stdDeviation="7" result="b"/><feMerge><feMergeNode in="b"/><feMergeNode in="SourceGraphic"/></feMerge></filter>
<filter id="sg" x="-60%" y="-60%" width="220%" height="220%"><feGaussianBlur stdDeviation="3.2" result="b"/><feMerge><feMergeNode in="b"/><feMergeNode in="SourceGraphic"/></feMerge></filter>
<pattern id="hex" width="69" height="119.5" patternUnits="userSpaceOnUse">
<path d="M17.3 0 L51.9 0 L69 29.9 L51.9 59.8 L17.3 59.8 L0 29.9 Z M69 59.8 L86.5 89.6 L69 119.5 M0 59.8 L-17.3 89.6 L0 119.5" fill="none" stroke="#12331f" stroke-width="1" opacity=".35"/>
</pattern>
</defs>
<rect width="1200" height="630" fill="url(#bg)"/>
<rect width="1200" height="630" fill="url(#hex)"/>
<circle cx="600" cy="300" r="165" fill="none" stroke="url(#snake)" stroke-width="24" filter="url(#glow)" opacity=".95"/>
<circle cx="600" cy="300" r="165" fill="none" stroke="#bbf7d0" stroke-width="2.5" stroke-dasharray="16 9 4 9" opacity=".85"/>
<circle cx="600" cy="300" r="150" fill="none" stroke="#15803d" stroke-width="1.2" opacity=".6"/>
<circle cx="600" cy="300" r="180" fill="none" stroke="#15803d" stroke-width="1.2" opacity=".6"/>
<line x1="765" y1="300" x2="783" y2="300" stroke="#22c55e" stroke-width="3" opacity=".8"/><circle cx="783" cy="300" r="4.5" fill="#4ade80" filter="url(#sg)"/><line x1="743" y1="382" x2="758" y2="392" stroke="#22c55e" stroke-width="3" opacity=".8"/><circle cx="758" cy="392" r="4.5" fill="#4ade80" filter="url(#sg)"/><line x1="682" y1="443" x2="692" y2="458" stroke="#22c55e" stroke-width="3" opacity=".8"/><circle cx="692" cy="458" r="4.5" fill="#4ade80" filter="url(#sg)"/><line x1="600" y1="465" x2="600" y2="483" stroke="#22c55e" stroke-width="3" opacity=".8"/><circle cx="600" cy="483" r="4.5" fill="#4ade80" filter="url(#sg)"/><line x1="518" y1="443" x2="509" y2="458" stroke="#22c55e" stroke-width="3" opacity=".8"/><circle cx="509" cy="458" r="4.5" fill="#4ade80" filter="url(#sg)"/><line x1="457" y1="382" x2="442" y2="392" stroke="#22c55e" stroke-width="3" opacity=".8"/><circle cx="442" cy="392" r="4.5" fill="#4ade80" filter="url(#sg)"/><line x1="435" y1="300" x2="417" y2="300" stroke="#22c55e" stroke-width="3" opacity=".8"/><circle cx="417" cy="300" r="4.5" fill="#4ade80" filter="url(#sg)"/><line x1="457" y1="218" x2="442" y2="208" stroke="#22c55e" stroke-width="3" opacity=".8"/><circle cx="442" cy="208" r="4.5" fill="#4ade80" filter="url(#sg)"/><line x1="517" y1="157" x2="508" y2="142" stroke="#22c55e" stroke-width="3" opacity=".8"/><circle cx="508" cy="142" r="4.5" fill="#4ade80" filter="url(#sg)"/><line x1="600" y1="135" x2="600" y2="117" stroke="#22c55e" stroke-width="3" opacity=".8"/><circle cx="600" cy="117" r="4.5" fill="#4ade80" filter="url(#sg)"/><line x1="682" y1="157" x2="692" y2="142" stroke="#22c55e" stroke-width="3" opacity=".8"/><circle cx="692" cy="142" r="4.5" fill="#4ade80" filter="url(#sg)"/><line x1="743" y1="217" x2="758" y2="208" stroke="#22c55e" stroke-width="3" opacity=".8"/><circle cx="758" cy="208" r="4.5" fill="#4ade80" filter="url(#sg)"/><g filter="url(#glow)"><path d="M580 119 L642 117 L680 135 L642 155 L604 153 L586 144 Z" fill="url(#snake)" stroke="#0e1a12" stroke-width="2"/><path d="M584 151 L634 153 L650 160 L604 162 Z" fill="#16a34a" stroke="#0e1a12" stroke-width="2"/><circle cx="638" cy="131" r="6" fill="#fbbf24"/><circle cx="640" cy="131" r="2.4" fill="#0a120c"/></g>
<path d="M536 146 Q566 155 588 156" stroke="url(#snake)" stroke-width="10" fill="none" stroke-linecap="round"/>
<polygon points="409.5,410.0 409.5,458.0 367.9,482.0 326.3,458.0 326.3,410.0 367.9,386.0" fill="#0c1710" stroke="#2c5c3d" stroke-width="1.6"/><g transform="translate(368,434) scale(1.3)" stroke="#4ade80" stroke-width="2.6" fill="none" stroke-linecap="round" stroke-linejoin="round" filter="url(#sg)"><circle cx="0" cy="0" r="16"/><path d="M-9,-4 C-6,-9 -1,-9 0,-4 C1,-9 6,-9 9,-4 M-10,3 C-6,8 -2,8 0,3 C2,8 6,8 10,3 M0,-4 V3"/></g><polygon points="373.6,276.0 373.6,324.0 332.0,348.0 290.4,324.0 290.4,276.0 332.0,252.0" fill="#0c1710" stroke="#2c5c3d" stroke-width="1.6"/><g transform="translate(332,300) scale(1.3)" stroke="#4ade80" stroke-width="2.6" fill="none" stroke-linecap="round" stroke-linejoin="round" filter="url(#sg)"><path d="M0,-18 L15,-11 V3 C15,12 8,17 0,21 C-8,17 -15,12 -15,3 V-11 Z"/><line x1="0" y1="-9" x2="0" y2="10"/></g><polygon points="409.5,142.0 409.5,190.0 367.9,214.0 326.3,190.0 326.3,142.0 367.9,118.0" fill="#0c1710" stroke="#2c5c3d" stroke-width="1.6"/><g transform="translate(368,166) scale(1.3)" stroke="#4ade80" stroke-width="2.6" fill="none" stroke-linecap="round" stroke-linejoin="round" filter="url(#sg)"><path d="M-14,16 H14 M-11,16 V-6 M-3.7,16 V-6 M3.7,16 V-6 M11,16 V-6 M-16,-6 H16 M-13,-6 L0,-17 L13,-6"/></g><polygon points="873.7,410.0 873.7,458.0 832.1,482.0 790.5,458.0 790.5,410.0 832.1,386.0" fill="#0c1710" stroke="#2c5c3d" stroke-width="1.6"/><g transform="translate(832,434) scale(1.3)" stroke="#4ade80" stroke-width="2.6" fill="none" stroke-linecap="round" stroke-linejoin="round" filter="url(#sg)"><path d="M-14,18 H6 M-8,18 V10 M-8,10 L-2,-2 M-2,-2 L10,-8"/><circle cx="-2" cy="-2" r="3.2"/><path d="M10,-8 L16,-3 M10,-8 L17,-11"/></g><polygon points="909.6,276.0 909.6,324.0 868.0,348.0 826.4,324.0 826.4,276.0 868.0,252.0" fill="#0c1710" stroke="#2c5c3d" stroke-width="1.6"/><g transform="translate(868,300) scale(1.3)" stroke="#4ade80" stroke-width="2.6" fill="none" stroke-linecap="round" stroke-linejoin="round" filter="url(#sg)"><path d="M-16,-2 H-6 C-4,2 -4,6 -7,8 L-9,8 V13 H9 V8 H6 C10,6 14,2 16,-2 Z M-16,-2 V-7 H-10 M16,-2 V-7 H8"/><path d="M-4,-18 l0,-4 M3,-16 l3,-3 M-11,-16 l-3,-3"/></g><polygon points="873.7,142.0 873.7,190.0 832.1,214.0 790.5,190.0 790.5,142.0 832.1,118.0" fill="#0c1710" stroke="#2c5c3d" stroke-width="1.6"/><g transform="translate(832,166) scale(1.3)" stroke="#4ade80" stroke-width="2.6" fill="none" stroke-linecap="round" stroke-linejoin="round" filter="url(#sg)"><ellipse cx="0" cy="-10" rx="13" ry="5.5"/><path d="M-13,-10 V10 C-13,13 -7,16 0,16 C7,16 13,13 13,10 V-10 M-13,0 C-13,3 -7,6 0,6 C7,6 13,3 13,0"/></g><text x="600" y="310" text-anchor="middle" font-family="ui-sans-serif, system-ui, 'Segoe UI', sans-serif" font-size="47" font-weight="800" letter-spacing="6" fill="#ecfdf5" filter="url(#sg)">OUROBOROS</text>
<text x="600" y="344" text-anchor="middle" font-family="ui-sans-serif, system-ui, 'Segoe UI', sans-serif" font-size="17" font-weight="500" letter-spacing="1.6" fill="#86efac">the self-improvement flywheel for Hermes Agent</text>
</svg>